<svg width="512" height="512" viewBox="0 0 512 512" fill="none" xmlns="http://www.w3.org/2000/svg" xmlns:xlink="http://www.w3.org/1999/xlink" class=""><rect id="r9" width="512" height="512" x="0" y="0" rx="128" fill="url(#ra)" stroke="#FFFFFF" stroke-width="0" stroke-opacity="100%" paint-order="stroke"></rect><clipPath id="clip"><use xlink:href="#r9"></use></clipPath><defs><radialGradient id="ra" cx="50%" cy="50%" r="100%" fx="50%" fy="0%" gradientUnits="objectBoundingBox"><stop stop-color="#000000"></stop><stop offset="1" stop-color="#000000"></stop></radialGradient><radialGradient id="rb" cx="0" cy="0" r="1" gradientUnits="userSpaceOnUse" gradientTransform="translate(256) rotate(90) scale(512)"><stop stop-color="white"></stop><stop offset="1" stop-color="white" stop-opacity="0"></stop></radialGradient></defs><svg width="352" height="352" viewBox="0 0 7 9" fill="none" xmlns="http://www.w3.org/2000/svg" x="80" y="80" alignment-baseline="middle" style="color: rgb(230, 230, 230);">
<path d="M2.868 5.648V7.952C2.78 7.976 2.64 8 2.448 8.024C2.264 8.048 2.08 8.06 1.896 8.06C1.712 8.06 1.548 8.044 1.404 8.012C1.268 7.988 1.152 7.94 1.056 7.868C0.968 7.796 0.9 7.696 0.852 7.568C0.804 7.44 0.78 7.272 0.78 7.064V1.412C0.78 1.244 0.824 1.116 0.912 1.028C1.008 0.931999 1.136 0.855999 1.296 0.8C1.568 0.704 1.884 0.635999 2.244 0.595999C2.604 0.548 2.988 0.524 3.396 0.524C4.5 0.524 5.332 0.756 5.892 1.22C6.452 1.684 6.732 2.312 6.732 3.104C6.732 3.6 6.604 4.024 6.348 4.376C6.092 4.728 5.788 5 5.436 5.192C5.724 5.584 6.008 5.952 6.288 6.296C6.568 6.64 6.788 6.952 6.948 7.232C6.868 7.512 6.72 7.728 6.504 7.88C6.296 8.024 6.06 8.096 5.796 8.096C5.62 8.096 5.468 8.076 5.34 8.036C5.212 7.996 5.1 7.94 5.004 7.868C4.908 7.796 4.82 7.708 4.74 7.604C4.66 7.5 4.584 7.388 4.512 7.268L3.504 5.648H2.868ZM3.624 4.052C3.928 4.052 4.168 3.976 4.344 3.824C4.52 3.664 4.608 3.432 4.608 3.128C4.608 2.824 4.508 2.596 4.308 2.444C4.116 2.284 3.808 2.204 3.384 2.204C3.264 2.204 3.168 2.208 3.096 2.216C3.024 2.224 2.944 2.236 2.856 2.252V4.052H3.624Z" fill="#F5F5F5"></path>
</svg>
</svg>